Coordinates
version=1
nRows=16
nColumns=33
inDegrees=yes

Units are S.I. units (second, meters, Newtons, ...)
Angles are in degrees.

endheader
time	ground_thorax_rot_x	ground_thorax_rot_y	ground_thorax_rot_z	ground_thorax_tx	ground_thorax_ty	ground_thorax_tz	clav_prot_r	clav_elev_r	scapula_abduction_r	scapula_elevation_r	scapula_upward_rot_r	scapula_winging_r	shoulder_elv_r	plane_of_elev_r	axial_rot_r	elbow_flexion_r	pro_sup_r	wrist_flex_r	wrist_dev_r	clav_prot_l	clav_elev_l	scapula_abduction_l	scapula_elevation_l	scapula_upward_rot_l	scapula_winging_l	shoulder_elv_l	plane_of_elev_l	axial_rot_l	elbow_flexion_l	pro_sup_l	wrist_flex_l	wrist_dev_l
      7.44000000	      1.33121131	    -41.16816674	     86.99894162	     23.65449585	    773.22190738	    -33.11681914	     26.98432446	    -45.00000000	     40.82031948	    -45.00000000	    -45.00000000	  -2641.83489298	  -2624.66166021	    141.89819834	   -179.99999979	   1069.16961035	   -298.91474783	     20.04833292	     15.83266068	     -7.80612208	     33.29289393	    -20.70703550	    -45.00000000	    -45.00000000	   -989.99545831	  -1891.58176719	    136.75406766	   -130.10409164	   1789.60109091	     46.06356837	     12.65687001	    -14.75330077
      7.45000000	      0.78162539	    -41.17945283	     86.41405400	     23.46500315	    772.59767971	    -33.18294104	     25.90441895	    -45.00000000	     40.88622851	    -45.00000000	    -44.09540496	  -2642.22582445	  -2624.75282639	    141.78442202	   -179.99999979	   1068.96131295	   -298.86086807	     19.80507423	     15.52677346	     -7.89352535	     33.04097243	    -20.90829427	    -45.00000000	    -45.00000000	   -990.21026293	  -1891.69251893	    136.97433496	   -130.00297907	   1789.51009652	     44.51215010	     12.49083006	    -14.43348441
      7.46000000	      0.32888490	    -41.14683306	     85.88665724	     23.19807017	    771.97960145	    -33.23243605	     26.16986565	    -45.00000000	     40.85715242	    -45.00000000	    -43.69316603	  -2642.20254461	  -2624.59533591	    141.78674764	   -179.99999979	   1068.84297834	   -298.73872886	     19.64879275	     15.52151185	     -7.76395186	     33.15605526	    -20.93639638	    -45.00000000	    -45.00000000	   -990.29226309	  -1891.74473934	    136.94176521	   -130.21720860	   1789.40944972	     43.56171842	     12.40875750	    -14.26036200
      7.47000000	      0.03100873	    -41.17826259	     85.60168648	     22.85463727	    771.38258948	    -33.26937840	     25.98921189	    -45.00000000	     40.84026973	    -45.00000000	    -43.49897616	  -2642.33713577	  -2624.58412781	    141.72081126	   -179.99999979	   1068.69906765	   -298.61117534	     19.63424217	     15.47759581	     -7.72725905	     33.02086029	    -20.89804340	    -45.00000000	    -45.00000000	   -990.33030597	  -1891.70184936	    136.96573503	   -130.49151072	   1789.40744770	     42.89216836	     12.34952209	    -14.12881130
      7.48000000	     -0.27934225	    -41.20407011	     85.28284642	     22.42063763	    770.80658540	    -33.30137616	     26.08172805	    -45.00000000	     40.79175104	    -45.00000000	    -43.36980062	  -2642.33331490	  -2624.50598594	    141.68419038	   -179.99999979	   1068.62252120	   -298.43625984	     19.51004732	     15.45204985	     -7.67298074	     33.16403054	    -20.85510212	    -45.00000000	    -45.00000000	   -990.31532319	  -1891.72362939	    136.94468138	   -130.81940126	   1789.42633377	     42.40655806	     12.22757436	    -14.04009094
      7.49000000	     -0.60345055	    -41.23725009	     84.96759697	     21.90222752	    770.26689729	    -33.33315585	     26.02669803	    -45.00000000	     40.90484795	    -45.00000000	    -42.95666240	  -2642.47076415	  -2624.46606946	    141.71168165	   -179.99999979	   1068.52522138	   -298.25855958	     19.55765511	     15.37496999	     -7.63585919	     32.99278767	    -20.88990969	    -45.00000000	    -45.00000000	   -990.27269969	  -1891.72626841	    136.96690858	   -131.09206032	   1789.50607731	     42.03454020	     12.19208944	    -13.99510773
      7.50000000	     -1.01776571	    -41.24356104	     84.50570515	     21.28560297	    769.76637926	    -33.37021265	     26.07443420	    -45.00000000	     40.90946624	    -45.00000000	    -42.75802005	  -2642.51769555	  -2624.45564694	    141.69856475	   -179.99999979	   1068.51244780	   -297.98227217	     19.35836929	     15.30815931	     -7.59727359	     33.21101680	    -20.94256597	    -45.00000000	    -45.00000000	   -990.33224491	  -1891.72807116	    137.01688419	   -131.24786910	   1789.49067850	     41.73605275	     12.08669019	    -13.96521291
      7.51000000	     -1.34365902	    -41.24990456	     84.14915564	     20.58021649	    769.31814829	    -33.41471062	     26.02675355	    -45.00000000	     40.94313314	    -45.00000000	    -42.58402582	  -2642.52984283	  -2624.34710408	    141.73786420	   -179.99999979	   1068.43277185	   -297.74459629	     19.60641205	     15.23049425	     -7.49558750	     32.90062824	    -20.97124238	    -45.00000000	    -45.00000000	   -990.24692749	  -1891.71729181	    136.96168098	   -131.42474022	   1789.47956740	     41.51025283	     12.08429091	    -13.91572823
      7.52000000	     -1.33192305	    -41.30951198	     84.47164235	     19.78960698	    768.93036943	    -33.46834119	     26.09768735	    -45.00000000	     40.53034462	    -45.00000000	    -44.17499510	  -2642.33105381	  -2624.51962147	    141.71654317	   -179.99999979	   1068.67306033	   -297.42264842	     19.89955888	     15.21412668	     -7.29219594	     32.84854786	    -21.05341743	    -45.00000000	    -45.00000000	   -990.15273252	  -1891.56759650	    137.23364974	   -131.57725658	   1789.52975445	     41.23678943	     12.05754094	    -13.85812092
      7.53000000	     -1.53114845	    -41.32047724	     84.23064355	     18.91779235	    768.60475409	    -33.52982983	     26.21722441	    -45.00000000	     40.42209772	    -45.00000000	    -44.34960556	  -2642.34098632	  -2624.43914928	    141.57450501	   -179.99999979	   1068.63458034	   -297.02044026	     19.70710340	     15.12398346	     -7.30409964	     32.98731714	    -21.02498677	    -45.00000000	    -45.00000000	   -990.20099996	  -1891.53936307	    137.34549834	   -131.92779194	   1789.50391966	     41.05329084	     11.98061911	    -13.84629915
      7.54000000	     -1.52542049	    -41.33830697	     84.35504091	     17.96272521	    768.35713640	    -33.60043241	     26.24862898	    -45.00000000	     40.32689030	    -45.00000000	    -44.84735876	  -2642.07100733	  -2624.19838583	    141.77585904	   -179.99999979	   1068.64410529	   -296.60477073	     19.76143156	     15.08560095	     -7.54862917	     33.17192854	    -20.98879264	    -45.00000000	    -45.00000000	   -989.90169407	  -1891.46007299	    137.21674865	   -132.24846578	   1789.42405997	     40.91118708	     11.86511892	    -13.89272836
      7.55000000	     -2.43369308	    -41.29316150	     83.09046460	     16.92846639	    768.18857765	    -33.67757658	     26.15106971	    -45.00000000	     40.85964834	    -45.00000000	    -43.22174109	  -2642.55974879	  -2624.46887895	    141.83569948	   -179.99999979	   1068.71985875	   -296.23065002	     19.58458714	     14.83622527	     -7.28972221	     33.07822172	    -21.22339402	    -45.00000000	    -45.00000000	   -990.17496062	  -1891.73114583	    137.39235959	   -132.22697563	   1789.62035275	     40.84023279	     11.88947337	    -14.00266244
      7.56000000	     -2.81754215	    -41.22330032	     82.65287904	     15.81707283	    768.09287048	    -33.76046872	     26.11366604	    -45.00000000	     40.49657939	    -45.00000000	    -43.65051684	  -2642.41750708	  -2624.24819035	    141.60951985	   -179.99999979	   1068.61779259	   -295.63616308	     19.67995207	     14.85373874	     -7.13628076	     33.01011308	    -21.24241987	    -45.00000000	    -45.00000000	   -990.41035622	  -1891.52775173	    137.47028155	   -131.88194370	   1789.52206445	     40.80266440	     11.82863876	    -13.94374757
      7.57000000	     -3.16028501	    -41.24999274	     82.25680156	     14.63734343	    768.05469462	    -33.84466506	     26.08847077	    -45.00000000	     40.51882067	    -45.00000000	    -43.36541426	  -2642.44593747	  -2624.13762729	    141.62687611	   -179.99999979	   1068.57755271	   -295.09630794	     19.75869551	     14.78401880	     -7.10151048	     33.00957329	    -21.34890238	    -45.00000000	    -45.00000000	   -990.32263173	  -1891.48932139	    137.46660198	   -131.90678547	   1789.52315679	     40.76747054	     11.80072185	    -14.00426982
      7.58000000	     -3.67040525	    -41.21527213	     81.59703546	     13.38851769	    768.06369440	    -33.92994678	     26.00813549	    -45.00000000	     40.57675693	    -45.00000000	    -42.89713303	  -2642.55907331	  -2624.05224911	    141.59221962	   -179.99999979	   1068.54273874	   -294.50928146	     19.78232494	     14.68792473	     -6.98638192	     32.98923487	    -21.46200266	    -45.00000000	    -45.00000000	   -990.40776262	  -1891.47851363	    137.46739895	   -131.76624182	   1789.54868008	     40.72803062	     11.76420401	    -14.05036912
      7.59000000	     -3.88590520	    -41.24668504	     81.35775284	     12.06976100	    768.10557214	    -34.01361022	     25.98020558	    -45.00000000	     40.64107304	    -45.00000000	    -43.05473566	  -2642.44973232	  -2623.92939155	    141.63054283	   -179.99999979	   1068.40273577	   -293.87935982	     19.88095485	     14.64365753	     -7.02237140	     32.98642168	    -21.51868666	    -45.00000000	    -45.00000000	   -990.19925289	  -1891.39229782	    137.32902895	   -131.68687466	   1789.41355753	     40.69863890	     11.74579436	    -14.08242079
